# xmcd CD database file
#
# Track frame offsets:
#	150
#	13805
#	35375
#	49513
#	71412
#	89867
#	105321
#	125466
#	144894
#	158691
#
# Disc length: 2305 seconds
#
# Revision: 0
# Processed by: cddbd v1.5.2PL0 Copyright (c) Steve Scherf et al.
# Submitted via: CDex 1.51
#
DISCID=7a08ff0a
DTITLE=The Clay Bay Wolves - Taken by the blues
DYEAR=2008
DGENRE=Blues
TTITLE0=Bread Line
TTITLE1=Troubles blues
TTITLE2=Time To Go Wild
TTITLE3=Taken By The Blues
TTITLE4=Return To You
TTITLE5=Broke And Lonely
TTITLE6=Don't Play With The Devil
TTITLE7=Blues For Living
TTITLE8=Mistreated Child
TTITLE9=What Blues Is All About
EXTD=YEAR: 2008
EXTT0=
EXTT1=
EXTT2=
EXTT3=
EXTT4=
EXTT5=
EXTT6=
EXTT7=
EXTT8=
EXTT9=
PLAYORDER=
